<?xml version="1.0" encoding="UTF-8" standalone="no"?>
<!-- Created with Inkscape (http://www.inkscape.org/) -->

<svg
   width="69.585419mm"
   height="94.191666mm"
   viewBox="0 0 69.585419 94.191666"
   version="1.1"
   id="svg1"
   xml:space="preserve"
   xmlns:inkscape="http://www.inkscape.org/namespaces/inkscape"
   xmlns:sodipodi="http://sodipodi.sourceforge.net/DTD/sodipodi-0.dtd"
   xmlns="http://www.w3.org/2000/svg"
   xmlns:svg="http://www.w3.org/2000/svg"><sodipodi:namedview
     id="namedview1"
     pagecolor="#0000d8"
     bordercolor="#000000"
     borderopacity="0.25"
     inkscape:showpageshadow="2"
     inkscape:pageopacity="0.0"
     inkscape:pagecheckerboard="0"
     inkscape:deskcolor="#d1d1d1"
     inkscape:document-units="mm"><inkscape:page
       x="-2.2411081e-22"
       y="0"
       width="69.585419"
       height="94.191666"
       id="page2"
       margin="0"
       bleed="0" /></sodipodi:namedview><defs
     id="defs1"><filter
       inkscape:collect="always"
       style="color-interpolation-filters:sRGB"
       id="filter2"
       x="-0.24759904"
       y="-0.24701087"
       width="1.4951981"
       height="1.4940217"><feGaussianBlur
         inkscape:collect="always"
         stdDeviation="1.8361409"
         id="feGaussianBlur2" /></filter></defs><g
     inkscape:label="Layer 1"
     inkscape:groupmode="layer"
     id="layer1"
     transform="translate(-21.43745,-131.49792)"><path
       id="rect1"
       style="opacity:1;fill:#ffffff;fill-opacity:1;stroke-width:10;stroke-linejoin:round"
       d="m 31.200163,131.49792 c -5.408772,0 -9.762712,4.35445 -9.762712,9.76323 v 74.6652 c 0,5.40878 4.35394,9.76323 9.762712,9.76323 h 50.059476 c 5.408772,0 9.763229,-4.35445 9.763229,-9.76323 V 149.0431 L 73.531429,131.49792 Z" /><path
       id="path2"
       style="opacity:1;fill:#000000;fill-opacity:1;stroke-width:8.19461;stroke-linejoin:round;filter:url(#filter2)"
       d="m 73.547007,131.51666 a 14.796044,14.796044 0 0 0 -0.31677,3.04426 14.796044,14.796044 0 0 0 14.79599,14.796 14.796044,14.796044 0 0 0 3.00189,-0.30748 z" /><path
       id="path1"
       style="opacity:1;fill:#000000;fill-opacity:1;stroke-width:8.19461;stroke-linejoin:round"
       d="m 73.547007,131.51666 a 14.796044,14.796044 0 0 0 -0.31677,3.04426 14.796044,14.796044 0 0 0 14.79599,14.796 14.796044,14.796044 0 0 0 3.00189,-0.30748 z" /></g></svg>
